# xmcd CD database file
#
# Track frame offsets:
#	187
#	13102
#	25167
#	33072
#	42409
#	54699
#	67169
#	79037
#	92007
#	103584
#	116609
#	127769
#	140472
#	154049
#	166467
#	176454
#	188797
#	200992
#
# Disc length: 2840 seconds
#
# Revision: 5
# Processed by: cddbd v1.5.2PL0 Copyright (c) Steve Scherf et al.
# Submitted via: CDex 1.51
#
DISCID=f10b1612
DTITLE=Big Mama Thornton - Hound Dog - The Peacock Recordings
DYEAR=1992
DGENRE=Blues
TTITLE0=Hound Dog
TTITLE1=My Man Called Me
TTITLE2=I Smell A Rat
TTITLE3=They Call Me Big Mama
TTITLE4=You Don't Move Me No More
TTITLE5=Let Your Tears Fall Baby
TTITLE6=Rock-A-Bye Baby
TTITLE7=Yes, Baby
TTITLE8=How Come
TTITLE9=Nightmare
TTITLE10=Stop A-Hoppin' On Me
TTITLE11=Just Like A Dog, Barking Up The Wrong Tree
TTITLE12=Walking Blues
TTITLE13=The Big Change
TTITLE14=Hard Times
TTITLE15=Laugh, Laugh, Laugh
TTITLE16=The Fish
TTITLE17=I've Searched The Whole World Over
EXTD=YEAR: 1992
EXTT0=
EXTT1=
EXTT2=
EXTT3=
EXTT4=
EXTT5=
EXTT6=
EXTT7=
EXTT8=
EXTT9=
EXTT10=
EXTT11=
EXTT12=
EXTT13=
EXTT14=
EXTT15=
EXTT16=
EXTT17=
PLAYORDER=
